<svg id="svg" version="1.1" xmlns="http://www.w3.org/2000/svg" xmlns:xlink="http://www.w3.org/1999/xlink" width="100" height="99.915" viewBox="0 0 100"><g id="svgg"><path id="path0" d="M48.822 38.465c-3.659 0.384 -6.152 2.514 -7.001 5.98 -0.179 0.731 -0.268 8.78 -0.112 10.124 0.565 4.863 5.01 7.693 10.458 6.66 3.468 -0.658 5.68 -3.035 6.113 -6.57 0.121 -0.991 0.127 -5.38 0.006 -5.604 -0.109 -0.204 -8.239 -0.265 -8.441 -0.063 -0.154 0.154 -0.144 3.346 0.011 3.475 0.073 0.061 0.803 0.102 2.072 0.117l1.959 0.023 -0.01 1.197c-0.018 2.074 -0.652 3.061 -2.296 3.568 -2.438 0.753 -4.912 -0.582 -5.335 -2.879 -0.153 -0.831 -0.123 -8.671 0.035 -9.345 0.987 -4.186 7.564 -3.656 7.564 0.608 0 0.479 0.019 0.483 2.284 0.483h2.079l0.099 -0.217c0.145 -0.319 -0.046 -1.782 -0.348 -2.656 -1.165 -3.379 -4.844 -5.353 -9.138 -4.902" stroke="none" fill="#fbfafa" fill-rule="evenodd" stroke-width="0.25"/><path id="path1" d="M48.889 0.122c-2.707 0.751 -3.854 4.09 -2.185 6.358 2.008 2.728 6.391 1.914 7.242 -1.345 0.802 -3.071 -2.01 -5.859 -5.057 -5.013m-16.923 3.396c-2.841 0.3 -4.445 3.361 -3.124 5.962 1.171 2.304 4.396 2.87 6.324 1.108 2.956 -2.701 0.788 -7.491 -3.2 -7.07m34.957 0.007c-2.807 0.338 -4.375 3.795 -2.821 6.217 2.192 3.416 7.522 1.881 7.522 -2.167 0 -2.574 -2.08 -4.366 -4.701 -4.05M16.538 13.54c-3.634 0.902 -4.143 5.98 -0.764 7.617 2.754 1.335 5.85 -0.618 5.85 -3.69 0 -2.667 -2.473 -4.576 -5.085 -3.928m64.743 0.041c-4.211 1.361 -3.731 7.335 0.641 7.963 2.861 0.412 5.216 -2.337 4.445 -5.187 -0.573 -2.115 -3.012 -3.447 -5.086 -2.776m-32.285 10.136c-2.278 0.641 -3.671 3.179 -2.89 5.263 0.036 0.097 -0.229 0.192 -1.214 0.434 -2.913 0.717 -5.867 2.179 -8.184 4.049l-0.599 0.483 -0.963 -1.011a862.25 862.25 0 0 1 -1.972 -2.079l-1.01 -1.069 0.163 -0.513c0.943 -2.973 -1.92 -5.944 -4.95 -5.137 -3.774 1.005 -4.099 6.301 -0.477 7.758 0.425 0.171 0.645 0.198 1.637 0.202l1.147 0.005 1.269 1.321c0.698 0.727 1.613 1.69 2.033 2.14l0.764 0.819 -0.351 0.421c-1.766 2.118 -3.55 5.91 -4.091 8.695 -0.109 0.563 -0.12 0.58 -0.331 0.526 -2.802 -0.711 -5.298 1.147 -5.303 3.947 -0.004 2.632 2.56 4.604 5.106 3.926 0.424 -0.113 0.449 -0.111 0.449 0.04 0 0.303 0.584 2.434 0.9 3.287 0.817 2.201 1.905 4.118 3.426 6.035l0.448 0.565 -1.554 1.487a533.5 533.5 0 0 1 -2.075 1.978l-0.521 0.491 -0.376 -0.134c-3.984 -1.416 -7.243 3.811 -4.218 6.764 2.896 2.828 7.979 0.034 6.884 -3.784 -0.083 -0.287 0.087 -0.466 3.619 -3.804l0.679 -0.641 0.518 0.421c2.116 1.722 5.439 3.31 8.253 3.944 0.627 0.141 0.893 0.237 0.883 0.32 -0.008 0.065 -0.06 0.348 -0.116 0.63 -0.639 3.227 2.818 5.787 5.865 4.343 1.638 -0.775 2.565 -2.764 2.136 -4.585 -0.086 -0.364 -0.091 -0.505 -0.02 -0.525 0.053 -0.015 0.328 -0.074 0.61 -0.132 2.898 -0.593 6.274 -2.206 8.675 -4.145l0.666 -0.537 0.174 0.217c0.164 0.203 0.969 1.042 2.936 3.056l0.835 0.855 -0.169 0.542c-1.205 3.866 3.523 6.941 6.596 4.29 3.13 -2.7 0.574 -7.891 -3.498 -7.104l-0.366 0.071 -1.001 -1.036a688.5 688.5 0 0 0 -2.048 -2.108c-1.185 -1.214 -1.162 -1.159 -0.716 -1.694 1.809 -2.167 4.114 -7.247 4.114 -9.066 0 -0.097 0.009 -0.176 0.021 -0.176s0.21 0.058 0.441 0.128c2.33 0.707 4.931 -1.148 5.072 -3.615 0.17 -2.989 -2.322 -4.997 -5.278 -4.253 -0.21 0.053 -0.217 0.036 -0.408 -0.845 -0.625 -2.886 -2.073 -5.908 -4.008 -8.364l-0.592 -0.752 0.986 -0.958c0.542 -0.527 1.424 -1.381 1.959 -1.898s1.015 -0.982 1.066 -1.033c0.066 -0.066 0.238 -0.046 0.609 0.071 4.044 1.277 7.122 -3.921 4.044 -6.829 -2.934 -2.772 -7.734 -0.076 -6.825 3.835 0.069 0.298 0.055 0.334 -0.237 0.582 -0.298 0.254 -1.282 1.198 -3.143 3.018l-0.867 0.848 -0.671 -0.509c-2.544 -1.927 -5.325 -3.242 -8.216 -3.883 -0.716 -0.159 -0.869 -0.219 -0.824 -0.327 1.157 -2.791 -1.923 -6.1 -4.899 -5.262M6.591 28.426c-3.086 0.83 -4.104 4.798 -1.778 6.933 2.316 2.126 5.976 1.045 6.769 -1.999 0.771 -2.961 -2.03 -5.73 -4.991 -4.934m84.82 -0.017c-3.672 0.985 -4.238 5.921 -0.873 7.606 3.514 1.759 7.241 -1.937 5.499 -5.453 -0.84 -1.695 -2.849 -2.63 -4.626 -2.153m-38.828 10.25c3.437 0.903 5.791 3.641 5.794 6.741 0.001 0.97 0.111 0.925 -2.254 0.925 -2.378 0 -2.282 0.036 -2.37 -0.885 -0.375 -3.928 -6.274 -4.304 -7.38 -0.47 -0.122 0.425 -0.136 1.041 -0.114 5.133l0.025 4.65 0.321 0.65c0.829 1.676 2.717 2.468 4.745 1.99 1.743 -0.411 2.434 -1.378 2.485 -3.48l0.031 -1.263h-1.932c-2.489 0 -2.275 0.182 -2.275 -1.923 0 -1.467 0.013 -1.593 0.171 -1.752 0.242 -0.242 8.179 -0.27 8.419 -0.03 0.237 0.237 0.145 5.961 -0.111 6.91 -0.925 3.427 -3.688 5.444 -7.638 5.576 -4.463 0.149 -7.641 -1.949 -8.64 -5.704 -0.301 -1.133 -0.301 -10.491 0 -11.624 0.789 -2.965 3.123 -5.042 6.293 -5.598 1.13 -0.198 3.385 -0.119 4.429 0.154M3.464 45.903c-4.861 0.813 -4.284 8.104 0.642 8.113 4.989 0.009 5.567 -7.402 0.633 -8.115 -0.667 -0.096 -0.686 -0.096 -1.275 0.002m91.921 -0.038c-4.877 0.842 -4.685 7.811 0.224 8.13 4.066 0.265 5.96 -4.952 2.675 -7.37 -0.744 -0.547 -2.088 -0.9 -2.898 -0.76M6.634 63.514c-1.962 0.461 -3.357 2.53 -3.059 4.536 0.653 4.402 6.886 4.742 8.007 0.438 0.765 -2.939 -1.957 -5.676 -4.948 -4.974m84.457 0.105c-4.365 1.488 -3.312 7.919 1.297 7.919 4.107 0 5.633 -5.324 2.158 -7.529 -0.956 -0.607 -2.355 -0.764 -3.455 -0.39M16.518 78.422c-3.698 0.996 -4.107 6.086 -0.618 7.681 2.206 1.008 4.853 -0.202 5.567 -2.544 0.922 -3.028 -1.901 -5.958 -4.949 -5.137m64.872 0c-3.611 0.973 -4.111 5.966 -0.761 7.602 3.194 1.56 6.673 -1.347 5.739 -4.796 -0.56 -2.07 -2.872 -3.373 -4.978 -2.806m-49.829 9.907c-2.911 0.659 -4.149 4.087 -2.343 6.484 1.952 2.592 6.068 1.887 7.106 -1.216 0.996 -2.978 -1.702 -5.962 -4.763 -5.268m35.362 -0.072c-2.742 0.503 -4.23 3.409 -3.008 5.874 1.981 3.997 7.952 2.374 7.69 -2.091 -0.139 -2.36 -2.415 -4.199 -4.681 -3.783m-17.895 3.588c-3.099 0.75 -4.162 4.703 -1.855 6.902 2.281 2.175 6.003 1.098 6.802 -1.969 0.759 -2.915 -1.983 -5.651 -4.947 -4.933" stroke="none" fill="#ec5454" fill-rule="evenodd" stroke-width="0.25"/><path id="path2" d="M46.193 49.914c0 2.233 0.011 3.147 0.025 2.03s0.013 -2.943 0 -4.06c-0.013 -1.116 -0.025 -0.203 -0.025 2.03m8.918 -3.611c0.579 0.015 1.502 0.015 2.051 0 0.55 -0.015 0.076 -0.027 -1.052 -0.027 -1.128 0 -1.578 0.012 -0.999 0.027m-3.076 2.564c1.143 0.013 2.99 0.013 4.103 0 1.113 -0.013 0.178 -0.025 -2.079 -0.025s-3.167 0.011 -2.024 0.025m-2.342 1.859c0 0.893 0.013 1.247 0.028 0.786 0.015 -0.461 0.015 -1.192 0 -1.624s-0.028 -0.056 -0.028 0.838m1.225 1.901c0.529 0.015 1.394 0.015 1.923 0s0.096 -0.027 -0.962 -0.027 -1.49 0.012 -0.962 0.027" stroke="none" fill="#f48e94" fill-rule="evenodd" stroke-width="0.25"/><path id="path3" d="M49.894 42.283c0.106 0.02 0.26 0.019 0.342 -0.002s-0.005 -0.038 -0.193 -0.037 -0.255 0.018 -0.148 0.039m2.67 0.821c0 0.015 0.125 0.14 0.278 0.278l0.278 0.251 -0.251 -0.278c-0.234 -0.259 -0.304 -0.317 -0.304 -0.251m1.282 10.469 0.042 1 0.025 -0.933c0.014 -0.513 -0.005 -0.963 -0.042 -1 -0.037 -0.037 -0.048 0.383 -0.025 0.933m-3.823 4.011c0.13 0.019 0.322 0.019 0.427 -0.001 0.105 -0.02 -0.001 -0.036 -0.236 -0.036s-0.321 0.017 -0.191 0.037m-6.262 1.52c0.16 0.165 0.309 0.299 0.333 0.299s-0.088 -0.135 -0.247 -0.299c-0.16 -0.165 -0.309 -0.299 -0.333 -0.299s0.088 0.135 0.247 0.299" stroke="none" fill="#f4acac" fill-rule="evenodd" stroke-width="0.25"/><path id="path4" d="" stroke="none" fill="#f4a4ac" fill-rule="evenodd" stroke-width="0.25"/></g></svg>