<?xml version="1.0" standalone="no"?>
<!DOCTYPE svg PUBLIC "-//W3C//DTD SVG 20010904//EN"
 "http://www.w3.org/TR/2001/REC-SVG-20010904/DTD/svg10.dtd">
<svg version="1.0" xmlns="http://www.w3.org/2000/svg"
 width="1170.000000pt" height="1169.000000pt" viewBox="0 0 1170.000000 1169.000000"
 preserveAspectRatio="xMidYMid meet">

<g transform="translate(0.000000,1169.000000) scale(0.100000,-0.100000)"
fill="#000000" stroke="none">
<path d="M5708 11661 c-81 -27 -136 -61 -195 -123 -175 -186 -175 -460 0 -646
92 -96 200 -142 337 -142 140 0 248 47 343 149 133 145 164 340 80 519 -40 85
-132 176 -222 220 -71 34 -83 37 -181 39 -82 2 -118 -1 -162 -16z"/>
<path d="M3725 11270 c-74 -13 -129 -35 -190 -76 -74 -48 -120 -103 -164 -194
-35 -73 -36 -78 -36 -190 0 -97 4 -124 23 -173 48 -117 152 -221 270 -269 48
-19 76 -23 172 -23 112 0 117 1 194 38 188 89 296 287 267 486 -39 259 -286
444 -536 401z"/>
<path d="M7830 11270 c-184 -34 -325 -160 -375 -334 -13 -43 -16 -85 -13 -155
3 -86 7 -105 40 -174 174 -366 682 -355 855 18 39 85 45 231 14 323 -50 148
-152 252 -292 301 -66 22 -169 32 -229 21z"/>
<path d="M1908 10087 c-130 -45 -224 -131 -285 -262 -36 -79 -44 -215 -18
-311 60 -221 292 -370 520 -334 181 29 334 164 380 334 26 96 18 232 -18 311
-106 229 -351 340 -579 262z"/>
<path d="M9508 10091 c-201 -65 -328 -239 -328 -452 0 -286 255 -503 537 -459
308 49 484 378 352 659 -40 86 -86 141 -160 190 -117 78 -274 102 -401 62z"/>
<path d="M5708 8901 c-235 -75 -375 -328 -313 -564 19 -72 19 -67 -5 -67 -36
0 -287 -69 -386 -106 -259 -96 -521 -247 -727 -417 l-49 -40 -48 49 c-27 27
-134 138 -238 247 l-188 199 19 56 c27 79 26 215 -2 296 -70 198 -237 316
-446 317 -236 0 -428 -164 -466 -397 -49 -307 233 -588 538 -535 l68 11 178
-182 c97 -101 209 -217 247 -259 l69 -75 -82 -110 c-203 -269 -370 -631 -432
-934 -10 -47 -21 -88 -24 -92 -4 -4 -42 0 -86 9 -209 42 -418 -65 -512 -262
-31 -66 -37 -89 -41 -169 -5 -103 10 -175 55 -258 32 -58 133 -157 190 -187
98 -50 243 -65 339 -36 27 8 51 11 54 7 4 -4 17 -54 29 -112 75 -345 255 -714
487 -997 30 -36 53 -69 52 -72 -2 -3 -112 -111 -245 -239 l-243 -234 -47 17
c-66 23 -186 30 -255 16 -138 -29 -259 -125 -325 -259 -35 -69 -38 -83 -41
-178 -4 -85 -1 -113 17 -167 57 -170 202 -292 380 -320 225 -34 456 117 516
337 13 49 16 86 12 153 -3 48 -7 95 -9 103 -2 9 102 116 254 263 l257 247 103
-78 c272 -206 607 -363 928 -436 62 -14 115 -27 117 -30 3 -3 0 -20 -6 -38
-22 -61 -25 -168 -7 -237 77 -299 391 -449 662 -316 199 97 300 314 250 530
-8 33 -14 61 -13 61 1 1 54 14 117 29 355 85 716 261 990 484 l75 61 133 -137
c73 -76 179 -188 237 -249 l104 -110 -19 -63 c-52 -165 -8 -343 115 -467 188
-189 485 -187 668 5 247 258 126 686 -218 776 -70 18 -164 19 -220 4 l-40 -11
-110 115 c-60 64 -172 181 -248 261 l-138 144 64 84 c218 283 374 613 452 956
13 57 25 105 27 108 2 2 26 -4 53 -12 69 -22 211 -14 288 16 116 44 222 150
268 268 34 87 38 227 9 312 -58 174 -200 294 -380 321 -63 10 -88 9 -155 -4
-44 -9 -82 -13 -86 -9 -3 4 -12 36 -18 71 -63 328 -258 739 -486 1021 l-68 84
111 106 c61 58 173 164 249 236 l138 131 39 -13 c176 -62 361 -20 492 110 164
165 185 420 50 604 -53 72 -104 113 -193 155 -65 30 -74 32 -183 32 -97 0
-124 -4 -173 -23 -117 -48 -222 -153 -268 -270 -18 -45 -23 -78 -23 -157 -1
-55 2 -112 6 -126 7 -25 -10 -44 -247 -270 -140 -134 -259 -245 -263 -247 -5
-1 -38 21 -73 49 -163 130 -410 271 -621 354 -121 47 -330 108 -412 120 -42 7
-46 10 -40 29 41 127 28 282 -33 386 -62 106 -169 191 -282 224 -73 21 -201
20 -273 -3z m363 -1716 c217 -38 397 -132 539 -282 147 -156 219 -329 220
-530 0 -71 -3 -84 -19 -93 -12 -6 -112 -10 -255 -10 -274 0 -259 -6 -269 112
-15 165 -139 304 -307 342 -241 55 -459 -46 -542 -251 -23 -58 -23 -60 -26
-588 -4 -576 -2 -598 50 -697 132 -250 536 -309 738 -107 74 74 92 132 98 307
l4 142 -226 0 c-213 0 -227 1 -246 20 -19 19 -20 33 -20 207 0 159 2 189 17
205 15 17 44 18 490 18 308 0 481 -4 494 -10 18 -10 19 -25 19 -343 0 -284 -3
-345 -19 -422 -71 -347 -292 -577 -646 -672 -92 -25 -115 -27 -300 -27 -161
-1 -216 3 -280 18 -341 79 -580 297 -682 623 l-28 88 0 615 0 615 28 89 c107
343 362 565 722 630 107 19 340 20 446 1z"/>
<path d="M771 8354 c-227 -61 -380 -294 -343 -522 15 -89 71 -200 132 -262 62
-61 173 -117 262 -132 231 -38 462 116 523 347 76 294 -151 587 -455 584 -36
0 -89 -7 -119 -15z"/>
<path d="M10689 8356 c-215 -60 -362 -265 -346 -486 10 -142 86 -276 202 -355
86 -58 160 -80 270 -79 234 3 417 160 457 392 48 281 -179 545 -466 541 -39 0
-92 -6 -117 -13z"/>
<path d="M383 6305 c-186 -40 -333 -198 -363 -389 -52 -329 258 -606 585 -521
82 22 152 64 217 133 97 102 133 201 126 348 -4 80 -10 103 -41 169 -66 138
-194 237 -341 264 -74 14 -105 13 -183 -4z"/>
<path d="M11135 6310 c-263 -53 -434 -312 -374 -569 37 -163 187 -313 350
-350 265 -61 525 116 570 387 39 238 -127 476 -368 527 -74 16 -117 17 -178 5z"/>
<path d="M746 4239 c-167 -57 -286 -196 -317 -369 -54 -305 223 -588 529 -540
315 49 491 380 356 667 -31 65 -121 164 -181 200 -110 64 -271 82 -387 42z"/>
<path d="M10668 4241 c-232 -74 -375 -330 -313 -560 36 -137 123 -245 247
-305 191 -93 402 -55 545 97 64 69 95 125 118 214 60 229 -79 474 -312 552
-80 27 -204 28 -285 2z"/>
<path d="M1931 2504 c-128 -34 -236 -126 -298 -251 -33 -67 -38 -85 -41 -170
-5 -117 14 -199 67 -281 188 -290 604 -290 792 0 53 82 72 164 67 281 -3 85
-8 102 -42 171 -101 206 -326 309 -545 250z"/>
<path d="M9521 2504 c-78 -21 -143 -59 -202 -119 -97 -98 -139 -200 -139 -336
0 -181 99 -339 263 -419 334 -162 718 119 666 488 -33 230 -232 403 -463 401
-39 0 -95 -7 -125 -15z"/>
<path d="M3688 1344 c-304 -73 -452 -418 -297 -691 36 -62 131 -152 193 -183
292 -141 626 33 676 353 30 193 -76 395 -254 482 -111 55 -207 67 -318 39z"/>
<path d="M7811 1349 c-74 -14 -168 -65 -230 -124 -104 -100 -146 -207 -139
-365 3 -88 7 -104 41 -173 147 -297 528 -360 755 -123 93 97 132 193 132 327
0 295 -268 515 -559 458z"/>
<path d="M5750 939 c-124 -24 -261 -132 -319 -250 -89 -183 -54 -396 89 -539
256 -256 693 -136 785 215 41 160 -5 325 -125 445 -115 115 -267 161 -430 129z"/>
</g>
</svg>
