<svg id="svg" version="1.1" xmlns="http://www.w3.org/2000/svg" xmlns:xlink="http://www.w3.org/1999/xlink" width="400" height="399.65811965811963" viewBox="0, 0, 400,399.65811965811963"><g id="svgg"><path id="path0" d="M195.288 153.859 C 180.652 155.395,170.678 163.915,167.285 177.778 C 166.569 180.701,166.215 212.899,166.839 218.275 C 169.098 237.726,186.878 249.048,208.672 244.913 C 222.543 242.282,231.393 232.771,233.125 218.632 C 233.611 214.670,233.631 197.114,233.150 196.217 C 232.713 195.400,200.192 195.158,199.385 195.966 C 198.768 196.583,198.808 209.351,199.429 209.866 C 199.723 210.111,202.641 210.276,207.719 210.335 L 215.556 210.427 215.515 215.214 C 215.445 223.509,212.905 227.456,206.329 229.488 C 196.577 232.502,186.683 227.162,184.989 217.971 C 184.377 214.647,184.496 183.286,185.131 180.592 C 189.078 163.850,215.385 165.966,215.385 183.025 C 215.385 184.941,215.463 184.957,224.520 184.957 L 232.835 184.957 233.231 184.089 C 233.811 182.815,233.045 176.963,231.839 173.466 C 227.180 159.950,212.463 152.055,195.288 153.859 " stroke="none" fill="#fbfafa" fill-rule="evenodd"></path><path id="path1" d="M195.556 0.488 C 184.730 3.493,180.140 16.849,186.817 25.919 C 194.850 36.831,212.381 33.576,215.783 20.541 C 218.991 8.255,207.744 -2.894,195.556 0.488 M127.863 14.072 C 116.500 15.272,110.083 27.518,115.368 37.920 C 120.051 47.138,132.954 49.399,140.663 42.352 C 152.486 31.547,143.815 12.387,127.863 14.072 M267.692 14.102 C 256.465 15.453,250.190 29.281,256.407 38.970 C 265.176 52.634,286.496 46.493,286.496 30.303 C 286.496 20.009,278.175 12.840,267.692 14.102 M66.154 54.158 C 51.620 57.765,49.581 78.077,63.096 84.627 C 74.112 89.965,86.496 82.155,86.496 69.868 C 86.496 59.202,76.605 51.564,66.154 54.158 M325.128 54.320 C 308.283 59.766,310.206 83.658,327.692 86.173 C 339.135 87.820,348.556 76.824,345.471 65.425 C 343.180 56.964,333.423 51.638,325.128 54.320 M195.988 94.864 C 186.877 97.429,181.304 107.579,184.429 115.916 C 184.574 116.302,183.512 116.682,179.572 117.652 C 167.922 120.521,156.106 126.367,146.838 133.849 L 144.444 135.781 140.594 131.736 C 138.476 129.512,134.926 125.769,132.706 123.419 L 128.668 119.145 129.318 117.094 C 133.090 105.202,121.638 93.319,109.517 96.547 C 94.420 100.566,93.119 121.751,107.610 127.580 C 109.309 128.264,110.189 128.372,114.160 128.388 L 118.747 128.407 123.823 133.690 C 126.615 136.597,130.274 140.448,131.954 142.249 L 135.009 145.523 133.606 147.206 C 126.540 155.679,119.404 170.844,117.241 181.986 C 116.805 184.237,116.760 184.307,115.916 184.092 C 104.707 181.248,94.724 188.678,94.705 199.879 C 94.687 210.406,104.945 218.293,115.128 215.582 C 116.823 215.131,116.923 215.140,116.923 215.743 C 116.923 216.954,119.259 225.480,120.525 228.889 C 123.794 237.695,128.146 245.362,134.229 253.030 L 136.022 255.291 129.806 261.240 C 126.387 264.513,122.651 268.074,121.504 269.154 L 119.419 271.117 117.915 270.582 C 101.980 264.917,88.942 285.825,101.042 297.638 C 112.627 308.948,132.958 297.774,128.579 282.504 C 128.249 281.354,128.928 280.640,143.057 267.290 L 145.773 264.725 147.844 266.409 C 156.308 273.296,169.599 279.648,180.855 282.185 C 183.364 282.751,184.427 283.135,184.387 283.463 C 184.356 283.721,184.147 284.855,183.924 285.983 C 181.369 298.891,195.195 309.130,207.386 303.357 C 213.938 300.255,217.645 292.300,215.931 285.017 C 215.589 283.562,215.567 282.996,215.851 282.917 C 216.065 282.857,217.162 282.619,218.291 282.389 C 229.882 280.018,243.387 273.566,252.993 265.810 L 255.656 263.661 256.354 264.528 C 257.009 265.342,260.231 268.696,268.098 276.752 L 271.437 280.171 270.761 282.338 C 265.940 297.802,284.852 310.103,297.143 299.498 C 309.663 288.696,299.438 267.933,283.150 271.082 L 281.684 271.366 277.679 267.221 C 275.477 264.942,271.791 261.147,269.487 258.787 C 264.748 253.933,264.840 254.150,266.623 252.013 C 273.858 243.343,283.077 223.025,283.077 215.750 C 283.077 215.361,283.115 215.044,283.162 215.046 C 283.209 215.048,284.003 215.279,284.926 215.559 C 294.245 218.386,304.652 210.968,305.214 201.099 C 305.895 189.143,295.927 181.110,284.103 184.086 C 283.264 184.297,283.233 184.232,282.470 180.707 C 279.972 169.164,274.179 157.076,266.438 147.249 L 264.069 144.242 268.012 140.412 C 270.181 138.305,273.707 134.889,275.849 132.821 C 277.991 130.752,279.910 128.893,280.113 128.690 C 280.377 128.425,281.067 128.505,282.549 128.973 C 298.724 134.080,311.037 113.290,298.725 101.658 C 286.987 90.568,267.789 101.355,271.423 116.998 C 271.700 118.191,271.642 118.334,270.474 119.327 C 269.282 120.341,265.346 124.119,257.900 131.397 L 254.432 134.787 251.746 132.752 C 241.570 125.042,230.447 119.785,218.880 117.219 C 216.016 116.584,215.406 116.342,215.585 115.912 C 220.214 104.748,207.891 91.513,195.988 94.864 M26.363 113.703 C 14.021 117.022,9.949 132.896,19.250 141.435 C 28.512 149.940,43.156 145.615,46.328 133.438 C 49.412 121.596,38.206 110.518,26.363 113.703 M365.641 113.636 C 350.953 117.574,348.688 137.320,362.151 144.061 C 376.207 151.098,391.115 136.315,384.146 122.249 C 380.787 115.469,372.751 111.729,365.641 113.636 M210.327 154.637 C 224.076 158.248,233.491 169.200,233.502 181.600 C 233.505 185.480,233.945 185.299,224.485 185.299 C 214.971 185.299,215.358 185.444,215.006 181.759 C 213.505 166.046,189.911 164.544,185.486 179.879 C 184.996 181.578,184.941 184.042,185.029 200.410 L 185.128 219.011 186.413 221.611 C 189.728 228.315,197.281 231.482,205.395 229.569 C 212.368 227.925,215.131 224.056,215.336 215.649 L 215.459 210.598 207.730 210.598 C 197.773 210.598,198.632 211.325,198.632 202.906 C 198.632 197.037,198.682 196.532,199.316 195.897 C 200.284 194.929,232.032 194.816,232.993 195.777 C 233.943 196.726,233.574 219.620,232.549 223.419 C 228.847 237.126,217.795 245.194,201.999 245.722 C 184.147 246.317,171.436 237.926,167.440 222.906 C 166.234 218.375,166.234 180.941,167.440 176.410 C 170.596 164.550,179.933 156.244,192.612 154.019 C 197.132 153.226,206.151 153.541,210.327 154.637 M13.856 183.612 C -5.589 186.863,-3.281 216.029,16.424 216.064 C 36.382 216.101,38.694 186.457,18.955 183.604 C 16.287 183.219,16.209 183.219,13.856 183.612 M381.538 183.458 C 362.032 186.826,362.798 214.700,382.432 215.978 C 398.698 217.037,406.270 196.172,393.130 186.499 C 390.156 184.310,384.778 182.899,381.538 183.458 M26.536 254.055 C 18.688 255.898,13.108 264.173,14.299 272.200 C 16.912 289.807,41.843 291.169,46.328 273.951 C 49.390 262.194,38.500 251.247,26.536 254.055 M364.366 254.477 C 346.904 260.428,351.118 286.154,369.555 286.154 C 385.983 286.154,392.086 264.856,378.185 256.036 C 374.361 253.609,368.764 252.978,364.366 254.477 M66.073 313.689 C 51.280 317.674,49.643 338.033,63.603 344.415 C 72.427 348.449,83.016 343.609,85.870 334.238 C 89.559 322.125,78.268 310.405,66.073 313.689 M325.561 313.689 C 311.117 317.579,309.117 337.554,322.515 344.097 C 335.292 350.337,349.205 338.709,345.471 324.912 C 343.230 316.634,333.982 311.421,325.561 313.689 M126.244 353.318 C 114.601 355.956,109.648 369.664,116.872 379.256 C 124.679 389.624,141.145 386.805,145.294 374.391 C 149.276 362.477,138.488 350.544,126.244 353.318 M267.692 353.029 C 256.724 355.041,250.772 366.663,255.659 376.524 C 263.582 392.513,287.468 386.019,286.418 368.161 C 285.863 358.723,276.758 351.365,267.692 353.029 M196.114 367.380 C 183.717 370.381,179.467 386.191,188.692 394.990 C 197.815 403.692,212.705 399.382,215.900 387.113 C 218.938 375.452,207.967 364.511,196.114 367.380 " stroke="none" fill="#ec5454" fill-rule="evenodd"></path><path id="path2" d="M184.773 199.658 C 184.773 208.590,184.818 212.244,184.871 207.778 C 184.925 203.312,184.925 196.004,184.871 191.538 C 184.818 187.073,184.773 190.726,184.773 199.658 M220.447 185.213 C 222.761 185.272,226.453 185.272,228.652 185.212 C 230.851 185.153,228.957 185.104,224.444 185.105 C 219.932 185.105,218.133 185.154,220.447 185.213 M208.143 195.470 C 212.716 195.524,220.101 195.524,224.554 195.470 C 229.006 195.416,225.265 195.372,216.239 195.372 C 207.214 195.372,203.570 195.416,208.143 195.470 M198.775 202.906 C 198.775 206.479,198.826 207.894,198.888 206.051 C 198.949 204.208,198.949 201.284,198.887 199.555 C 198.825 197.825,198.775 199.333,198.775 202.906 M203.675 210.512 C 205.791 210.572,209.252 210.572,211.368 210.512 C 213.483 210.452,211.752 210.403,207.521 210.403 C 203.291 210.403,201.560 210.452,203.675 210.512 " stroke="none" fill="#f48e94" fill-rule="evenodd"></path><path id="path3" d="M199.577 169.131 C 200.002 169.212,200.617 169.209,200.944 169.124 C 201.271 169.038,200.923 168.971,200.171 168.975 C 199.419 168.979,199.151 169.049,199.577 169.131 M210.256 172.415 C 210.256 172.474,210.756 172.974,211.368 173.526 L 212.479 174.530 211.474 173.419 C 210.539 172.383,210.256 172.151,210.256 172.415 M215.383 214.289 L 215.552 218.291 215.651 214.559 C 215.706 212.507,215.630 210.706,215.482 210.558 C 215.335 210.409,215.290 212.089,215.383 214.289 M200.090 230.331 C 200.610 230.409,201.379 230.407,201.800 230.326 C 202.220 230.245,201.795 230.181,200.855 230.183 C 199.915 230.186,199.570 230.252,200.090 230.331 M175.043 236.410 C 175.681 237.068,176.279 237.607,176.373 237.607 C 176.467 237.607,176.022 237.068,175.385 236.410 C 174.747 235.752,174.148 235.214,174.054 235.214 C 173.960 235.214,174.405 235.752,175.043 236.410 " stroke="none" fill="#f4acac" fill-rule="evenodd"></path><path id="path4" d="" stroke="none" fill="#f4a4ac" fill-rule="evenodd"></path></g></svg>